<svg width="394" height="1004" viewBox="0 0 394 1004" fill="none" xmlns="http://www.w3.org/2000/svg">
<g clip-path="url(#clip0_2131_2101)">
<rect x="2" y="2" width="390" height="1000" rx="15" fill="white"/>
<g clip-path="url(#clip1_2131_2101)">
<g clip-path="url(#clip2_2131_2101)">
<path d="M2 2H395V1002H2V2Z" fill="url(#paint0_linear_2131_2101)" fill-opacity="0.8"/>
<path d="M395 1137H2V2H395V1137Z" stroke="#E5E7EB"/>
<g opacity="0.494179">
<path d="M46 82C52.6274 82 58 87.3726 58 94C58 100.627 52.6274 106 46 106C39.3726 106 34 100.627 34 94C34 87.3726 39.3726 82 46 82Z" fill="#FBBF24"/>
<path d="M46 82C52.6274 82 58 87.3726 58 94C58 100.627 52.6274 106 46 106C39.3726 106 34 100.627 34 94C34 87.3726 39.3726 82 46 82Z" stroke="#E5E7EB"/>
</g>
<g opacity="0.4">
<path d="M339 126.164C343.418 126.164 347 129.746 347 134.164C347 138.582 343.418 142.164 339 142.164C334.582 142.164 331 138.582 331 134.164C331 129.746 334.582 126.164 339 126.164Z" fill="#C4B5FD"/>
<path d="M339 126.164C343.418 126.164 347 129.746 347 134.164C347 138.582 343.418 142.164 339 142.164C334.582 142.164 331 138.582 331 134.164C331 129.746 334.582 126.164 339 126.164Z" stroke="#E5E7EB"/>
</g>
<g opacity="0.2">
<path d="M86 194C92.6274 194 98 199.373 98 206C98 212.627 92.6274 218 86 218H78C71.3726 218 66 212.627 66 206C66 199.373 71.3726 194 78 194H86Z" fill="white"/>
<path d="M86 194C92.6274 194 98 199.373 98 206C98 212.627 92.6274 218 86 218H78C71.3726 218 66 212.627 66 206C66 199.373 71.3726 194 78 194H86Z" stroke="#E5E7EB"/>
</g>
<g opacity="0.250168">
<path d="M357 255.002C361.969 255.002 365.998 259.031 365.998 264C365.998 268.969 361.969 272.998 357 272.998C352.031 272.998 348.002 268.969 348.002 264C348.002 259.031 352.031 255.002 357 255.002Z" fill="#6EE7B7"/>
<path d="M357 255.002C361.969 255.002 365.998 259.031 365.998 264C365.998 268.969 361.969 272.998 357 272.998C352.031 272.998 348.002 268.969 348.002 264C348.002 259.031 352.031 255.002 357 255.002Z" stroke="#E5E7EB"/>
</g>
<g opacity="0.3">
<path d="M60 322C65.5228 322 70 326.477 70 332C70 337.523 65.5228 342 60 342C54.4772 342 50 337.523 50 332C50 326.477 54.4772 322 60 322Z" fill="#FDA4AF"/>
<path d="M60 322C65.5228 322 70 326.477 70 332C70 337.523 65.5228 342 60 342C54.4772 342 50 337.523 50 332C50 326.477 54.4772 322 60 322Z" stroke="#E5E7EB"/>
</g>
<g opacity="0.25">
<path d="M321 386C326.523 386 331 390.477 331 396C331 401.523 326.523 406 321 406H313C307.477 406 303 401.523 303 396C303 390.477 307.477 386 313 386H321Z" fill="#14B8A6"/>
<path d="M321 386C326.523 386 331 390.477 331 396C331 401.523 326.523 406 321 406H313C307.477 406 303 401.523 303 396C303 390.477 307.477 386 313 386H321Z" stroke="#E5E7EB"/>
</g>
</g>
</g>
</g>
<rect x="1" y="1" width="392" height="1002" rx="16" stroke="#CED4DA" stroke-width="2"/>
<defs>
<linearGradient id="paint0_linear_2131_2101" x1="-194.5" y1="2" x2="-194.5" y2="1002" gradientUnits="userSpaceOnUse">
<stop stop-color="#1E1B4B"/>
<stop offset="1" stop-color="#3730A3"/>
</linearGradient>
<clipPath id="clip0_2131_2101">
<rect x="2" y="2" width="390" height="1000" rx="15" fill="white"/>
</clipPath>
<clipPath id="clip1_2131_2101">
<path d="M2 2H392V1002H2V2Z" fill="white"/>
</clipPath>
<clipPath id="clip2_2131_2101">
<path d="M2 2H395V1002H2V2Z" fill="white"/>
</clipPath>
</defs>
</svg>
