<svg width="390" height="1000" viewBox="0 0 390 1000" fill="none" xmlns="http://www.w3.org/2000/svg">
<g clip-path="url(#clip0_2131_2224)">
<rect width="390" height="1000" rx="8" fill="white"/>
<g clip-path="url(#clip1_2131_2224)">
<path d="M0 0H390V1000H0V0Z" fill="url(#paint0_linear_2131_2224)"/>
<path d="M390 1000H0V0H390V1000Z" stroke="#E5E7EB"/>
<g opacity="0.7">
<path d="M44 70.001C50.6274 70.001 56 75.3736 56 82.001C56 88.6284 50.6274 94.001 44 94.001C37.3726 94.001 32 88.6284 32 82.001C32 75.3736 37.3726 70.001 44 70.001Z" fill="#FEF08A"/>
<path d="M44 70.001C50.6274 70.001 56 75.3736 56 82.001C56 88.6284 50.6274 94.001 44 94.001C37.3726 94.001 32 88.6284 32 82.001C32 75.3736 37.3726 70.001 44 70.001Z" stroke="#E5E7EB"/>
</g>
<g opacity="0.6">
<path d="M334 125.526C338.418 125.526 342 129.108 342 133.526C342 137.945 338.418 141.526 334 141.526C329.582 141.526 326 137.945 326 133.526C326 129.108 329.582 125.526 334 125.526Z" fill="#FBCFE8"/>
<path d="M334 125.526C338.418 125.526 342 129.108 342 133.526C342 137.945 338.418 141.526 334 141.526C329.582 141.526 326 137.945 326 133.526C326 129.108 329.582 125.526 334 125.526Z" stroke="#E5E7EB"/>
</g>
<g opacity="0.5">
<path d="M80 182.002C88.8366 182.002 96 189.165 96 198.002C96 206.839 88.8366 214.002 80 214.002C71.1634 214.002 64 206.839 64 198.002C64 189.165 71.1634 182.002 80 182.002Z" fill="#E9D5FF"/>
<path d="M80 182.002C88.8366 182.002 96 189.165 96 198.002C96 206.839 88.8366 214.002 80 214.002C71.1634 214.002 64 206.839 64 198.002C64 189.165 71.1634 182.002 80 182.002Z" stroke="#E5E7EB"/>
</g>
<g opacity="0.7">
<path d="M348 253.446C353.523 253.446 358 257.923 358 263.446C358 268.969 353.523 273.446 348 273.446C342.477 273.446 338 268.969 338 263.446C338 257.923 342.477 253.446 348 253.446Z" fill="#FDE047"/>
<path d="M348 253.446C353.523 253.446 358 257.923 358 263.446C358 268.969 353.523 273.446 348 273.446C342.477 273.446 338 268.969 338 263.446C338 257.923 342.477 253.446 348 253.446Z" stroke="#E5E7EB"/>
</g>
<g opacity="0.6">
<path d="M36 310.01C42.6274 310.01 48 315.382 48 322.01C48 328.637 42.6274 334.01 36 334.01C29.3726 334.01 24 328.637 24 322.01C24 315.382 29.3726 310.01 36 310.01Z" fill="#F9A8D4"/>
<path d="M36 310.01C42.6274 310.01 48 315.382 48 322.01C48 328.637 42.6274 334.01 36 334.01C29.3726 334.01 24 328.637 24 322.01C24 315.382 29.3726 310.01 36 310.01Z" stroke="#E5E7EB"/>
</g>
<g opacity="0.3">
<path d="M358 86.0146C366.837 86.0146 374 93.1781 374 102.015C374 110.851 366.837 118.015 358 118.015H342C333.163 118.015 326 110.851 326 102.015C326 93.1781 333.163 86.0146 342 86.0146H358Z" fill="white"/>
<path d="M358 86.0146C366.837 86.0146 374 93.1781 374 102.015C374 110.851 366.837 118.015 358 118.015H342C333.163 118.015 326 110.851 326 102.015C326 93.1781 333.163 86.0146 342 86.0146H358Z" stroke="#E5E7EB"/>
</g>
<g opacity="0.25">
<path d="M44 221.199C50.6274 221.199 56 226.572 56 233.199C56 239.827 50.6274 245.199 44 245.199H28C21.3726 245.199 16 239.827 16 233.199C16 226.572 21.3726 221.199 28 221.199H44Z" fill="white"/>
<path d="M44 221.199C50.6274 221.199 56 226.572 56 233.199C56 239.827 50.6274 245.199 44 245.199H28C21.3726 245.199 16 239.827 16 233.199C16 226.572 21.3726 221.199 28 221.199H44Z" stroke="#E5E7EB"/>
</g>
<path d="M100.25 82.0215H80V54.0215H100.25V82.0215Z" stroke="#E5E7EB"/>
<g opacity="0.6">
<path d="M100.25 80.0293H80V56.0293H100.25V80.0293Z" stroke="#E5E7EB"/>
<g clip-path="url(#clip2_2131_2224)">
<path d="M91.1408 58.9209C90.9545 58.5342 90.5608 58.2881 90.1284 58.2881C89.6959 58.2881 89.3057 58.5342 89.1158 58.9209L86.8553 63.5721L81.8069 64.3174C81.385 64.3807 81.0334 64.676 80.9034 65.0803C80.7733 65.4846 80.8787 65.9311 81.1811 66.2299L84.8444 69.8545L83.9795 74.9768C83.9092 75.3986 84.085 75.8275 84.433 76.0771C84.7811 76.3268 85.2416 76.3584 85.6213 76.158L90.1319 73.7498L94.6424 76.158C95.0221 76.3584 95.4826 76.3303 95.8307 76.0771C96.1787 75.824 96.3545 75.3986 96.2842 74.9768L95.4158 69.8545L99.0791 66.2299C99.3815 65.9311 99.4905 65.4846 99.3569 65.0803C99.2233 64.676 98.8752 64.3807 98.4533 64.3174L93.4014 63.5721L91.1408 58.9209Z" fill="#FEF08A"/>
</g>
</g>
<path d="M310 180.857H294.25V156.857H310V180.857Z" stroke="#E5E7EB"/>
<g opacity="0.7">
<path d="M310 178.857H294.25V159.857H310V178.857Z" stroke="#E5E7EB"/>
<g clip-path="url(#clip3_2131_2224)">
<path d="M302.915 162.012C302.77 161.711 302.464 161.52 302.128 161.52C301.791 161.52 301.488 161.711 301.34 162.012L299.582 165.629L295.655 166.209C295.327 166.258 295.054 166.488 294.953 166.802C294.852 167.117 294.934 167.464 295.169 167.696L298.018 170.516L297.345 174.5C297.291 174.828 297.427 175.161 297.698 175.355C297.969 175.55 298.327 175.574 298.622 175.418L302.13 173.545L305.639 175.418C305.934 175.574 306.292 175.552 306.563 175.355C306.834 175.159 306.97 174.828 306.916 174.5L306.24 170.516L309.089 167.696C309.325 167.464 309.409 167.117 309.305 166.802C309.202 166.488 308.931 166.258 308.603 166.209L304.673 165.629L302.915 162.012Z" fill="#FBCFE8"/>
</g>
</g>
<path d="M374 904H278V808H374V904Z" stroke="#E5E7EB"/>
<path d="M374 904H278V808H374V904Z" stroke="#E5E7EB"/>
<path d="M366 804C372.627 804 378 809.373 378 816C378 822.627 372.627 828 366 828C359.373 828 354 822.627 354 816C354 809.373 359.373 804 366 804Z" fill="#FDE047"/>
<path d="M366 804C372.627 804 378 809.373 378 816C378 822.627 372.627 828 366 828C359.373 828 354 822.627 354 816C354 809.373 359.373 804 366 804Z" stroke="#E5E7EB"/>
<path d="M372 824H360V808H372V824Z" stroke="#E5E7EB"/>
<path d="M372 821.5H360V809.5H372V821.5Z" stroke="#E5E7EB"/>
<path d="M361.116 816.541L365.351 820.495C365.527 820.659 365.759 820.75 366 820.75C366.241 820.75 366.473 820.659 366.649 820.495L370.884 816.541C371.597 815.878 372 814.947 372 813.975V813.839C372 812.2 370.816 810.803 369.202 810.534C368.133 810.356 367.045 810.705 366.281 811.469L366 811.75L365.719 811.469C364.955 810.705 363.867 810.356 362.798 810.534C361.184 810.803 360 812.2 360 813.839V813.975C360 814.947 360.403 815.878 361.116 816.541Z" fill="#EC4899"/>
</g>
</g>
<rect x="1" y="1" width="388" height="998" rx="7" stroke="#CED4DA" stroke-width="2"/>
<defs>
<linearGradient id="paint0_linear_2131_2224" x1="137.886" y1="353.553" x2="616.614" y2="166.849" gradientUnits="userSpaceOnUse">
<stop stop-color="#1E3A8A"/>
<stop offset="1" stop-color="#3B82F6"/>
</linearGradient>
<clipPath id="clip0_2131_2224">
<rect width="390" height="1000" rx="8" fill="white"/>
</clipPath>
<clipPath id="clip1_2131_2224">
<path d="M0 0H390V1000H0V0Z" fill="white"/>
</clipPath>
<clipPath id="clip2_2131_2224">
<path d="M80 58.2881H100.25V76.2881H80V58.2881Z" fill="white"/>
</clipPath>
<clipPath id="clip3_2131_2224">
<path d="M294.25 161.52H310V175.52H294.25V161.52Z" fill="white"/>
</clipPath>
</defs>
</svg>
