<svg width="412" height="280" viewBox="0 0 412 280" fill="none" xmlns="http://www.w3.org/2000/svg">
<rect width="412" height="280" rx="15" fill="url(#paint0_linear_2155_2498)"/>
<path opacity="0.15" d="M20 66.52H56V30.52H20V66.52Z" fill="white"/>
<g opacity="0.15">
<path d="M338.914 92.6562C338.914 90.75 339.383 88.9766 340.32 87.3359C341.258 85.6953 342.543 84.4023 344.176 83.457C345.809 82.5117 347.57 82.0391 349.461 82.0391C351.367 82.0391 353.141 82.5117 354.781 83.457C356.422 84.4023 357.715 85.6992 358.66 87.3477C359.605 88.9961 360.078 90.7656 360.078 92.6562C360.078 94.5469 359.605 96.3086 358.66 97.9414C357.715 99.5742 356.426 100.859 354.793 101.797C353.16 102.734 351.383 103.203 349.461 103.203C347.555 103.203 345.789 102.734 344.164 101.797C342.539 100.859 341.258 99.5781 340.32 97.9531C339.383 96.3281 338.914 94.5625 338.914 92.6562ZM340.93 92.6562C340.93 94.1875 341.312 95.6133 342.078 96.9336C342.844 98.2539 343.879 99.293 345.184 100.051C346.488 100.809 347.914 101.188 349.461 101.188C350.992 101.188 352.418 100.812 353.738 100.062C355.059 99.3125 356.109 98.2734 356.891 96.9453C357.672 95.6172 358.062 94.1875 358.062 92.6562C358.062 91.125 357.68 89.6914 356.914 88.3555C356.148 87.0195 355.098 85.9688 353.762 85.2031C352.426 84.4375 350.992 84.0547 349.461 84.0547C347.945 84.0547 346.527 84.4375 345.207 85.2031C343.887 85.9688 342.844 87.0117 342.078 88.332C341.312 89.6523 340.93 91.0938 340.93 92.6562Z" fill="white"/>
</g>
<path opacity="0.15" d="M20 116.1H50V86.1H20V116.1Z" fill="white"/>
<g opacity="0.15">
<path d="M358.78 162.52H394.78V126.52H358.78V162.52Z" fill="white"/>
</g>
<g opacity="0.15">
<path d="M268.326 66.0352C268.326 64.8438 268.619 63.7354 269.205 62.71C269.791 61.6846 270.594 60.8765 271.615 60.2856C272.635 59.6948 273.736 59.3994 274.918 59.3994C276.109 59.3994 277.218 59.6948 278.243 60.2856C279.269 60.8765 280.077 61.687 280.667 62.7173C281.258 63.7476 281.554 64.8535 281.554 66.0352C281.554 67.2168 281.258 68.3179 280.667 69.3384C280.077 70.3589 279.271 71.1621 278.25 71.748C277.23 72.334 276.119 72.627 274.918 72.627C273.727 72.627 272.623 72.334 271.607 71.748C270.592 71.1621 269.791 70.3613 269.205 69.3457C268.619 68.3301 268.326 67.2266 268.326 66.0352ZM269.586 66.0352C269.586 66.9922 269.825 67.8833 270.304 68.7085C270.782 69.5337 271.429 70.1831 272.245 70.6567C273.06 71.1304 273.951 71.3672 274.918 71.3672C275.875 71.3672 276.766 71.1328 277.591 70.6641C278.417 70.1953 279.073 69.5459 279.562 68.7158C280.05 67.8857 280.294 66.9922 280.294 66.0352C280.294 65.0781 280.055 64.1821 279.576 63.3472C279.098 62.5122 278.441 61.8555 277.606 61.377C276.771 60.8984 275.875 60.6592 274.918 60.6592C273.971 60.6592 273.084 60.8984 272.259 61.377C271.434 61.8555 270.782 62.5073 270.304 63.3325C269.825 64.1577 269.586 65.0586 269.586 66.0352Z" fill="white"/>
</g>
<defs>
<linearGradient id="paint0_linear_2155_2498" x1="206" y1="0" x2="206" y2="280" gradientUnits="userSpaceOnUse">
<stop stop-color="#6EC5E9"/>
<stop offset="1" stop-color="#3FD0C9"/>
</linearGradient>
</defs>
</svg>
